# xmcd
#
# Track frame offsets: 
#        150
#        28539
#        45662
#        68147
#        89540
#        108076
#        128827
#        142916
#        165457
#        187473
#        208452
#        228103
#        245300
#        273226
#        304918
#
# Disc length: 4402 seconds
#
# Revision: 0
# Processed by: cddbd v1.5.2PL0 Copyright (c) Steve Scherf et al.
# Submitted via: ExactAudioCopy v0.99pb5
#
DISCID=d111300f
DTITLE=Tindersticks - Live in London 2010
DYEAR=2011
DGENRE=Alternative
TTITLE0=Falling Down A Mountain
TTITLE1=Keep You Beautiful
TTITLE2=Sometimes It Hurts
TTITLE3=Marbles
TTITLE4=Bathtime
TTITLE5=Marseilles Sunshine
TTITLE6=Hubbards Hill
TTITLE7=Peanuts
TTITLE8=Dying Slowly
TTITLE9=The Otherside Of The World
TTITLE10=Tyes
TTITLE11=Black Smoke
TTITLE12=Factory Girls
TTITLE13=A Night In
TTITLE14=Harmony Around My Table
EXTD=
EXTT0=
EXTT1=
EXTT2=
EXTT3=
EXTT4=
EXTT5=
EXTT6=
EXTT7=
EXTT8=
EXTT9=
EXTT10=
EXTT11=
EXTT12=
EXTT13=
EXTT14=
PLAYORDER=
